{"title":"Travis Barker - Can A Drummer Get Some (Feat. Lil Wayne, Rick Ro","uid":6284971,"size":64261287,"categoryP":"video","categoryS":"music_videos","magnet":"?xt=urn:btih:cb16a25e69cc56ab386e9acae1b6d25b2ac54e8a&amp;dn=Travis+Barker+-+Can+A+Drummer+Get+Some+%28Feat.+Lil+Wayne%2C+Rick+Ro&amp;tr=udp%3A%2F%2Ftracker.openbittorrent.com%3A80&amp;tr=udp%3A%2F%2Fopen.demonii.com%3A1337&amp;tr=udp%3A%2F%2Ftracker.coppersurfer.tk%3A6969&amp;tr=udp%3A%2F%2Fexodus.desync.com%3A6969","seeders":1,"leechers":0,"uploader":"vimzin","files":1,"time":1301580208,"description":"Travis Barker - Can A Drummer Get Some (Feat. Lil Wayne, Rick Ross, Swizz Beatz, Game)-[2011] - [PhoenixRG] \n\n &lt;a href=&quot;\nhttp://img822.imageshack.us/img822/7977/travisn.jpg&quot; rel=&quot;nofollow&quot; target=&quot;_NEW&quot;&gt;\nhttp://img822.imageshack.us/img822/7977/travisn.jpg&lt;/a&gt;\n\nGeneral\n\nFormat                           : MPEG-4\nFormat profile                   : Base Media\nCodec ID                         : isom\nFile size                        : 61.3 MiB\nDuration                         : 4mn 26s\nOverall bit rate                 : 1 932 Kbps\nWriting application              : Lavf52.57.1\n\nVideo\nID                               : 1\nFormat                           : MPEG-4 Visual\nFormat profile                   : Simple@L3\nCodec ID                         : 20\nDuration                         : 4mn 26s\nBit rate mode                    : Variable\nBit rate                         : 1 761 Kbps\nWidth                            : 640 pixels\nHeight                           : 360 pixels\nDisplay aspect ratio             : 16:9\nFrame rate mode                  : Constant\nFrame rate                       : 24.000 fps\nColor space                      : YUV\nChroma subsampling               : 4:2:0\nBit depth                        : 8 bits\nScan type                        : Progressive\nCompression mode                 : Lossy\nBits/(Pixel*Frame)               : 0.318\nStream size                      : 55.8 MiB (91%)\nWriting library                  : ZJMedia MPEG Encoder\n\nAudio\nID                               : 2\nFormat                           : AAC\nFormat/Info                      : Advanced Audio Codec\nFormat profile                   : LC\nCodec ID                         : 40\nDuration                         : 4mn 25s\nBit rate mode                    : Variable\nBit rate                         : 164 Kbps\nChannel(s)                       : 2 channels\nChannel positions                : Front: L R\nSampling rate                    : 48.0 KHz\nCompression mode                 : Lossy\nStream size                      : 5.20 MiB (8%)","torrent":{"xt":"urn:btih:cb16a25e69cc56ab386e9acae1b6d25b2ac54e8a","amp;dn":"Travis+Barker+-+Can+A+Drummer+Get+Some+%28Feat.+Lil+Wayne%2C+Rick+Ro","amp;tr":["udp%3A%2F%2Ftracker.openbittorrent.com%3A80","udp%3A%2F%2Fopen.demonii.com%3A1337","udp%3A%2F%2Ftracker.coppersurfer.tk%3A6969","udp%3A%2F%2Fexodus.desync.com%3A6969"],"infoHash":"cb16a25e69cc56ab386e9acae1b6d25b2ac54e8a","infoHashBuffer":{"type":"Buffer","data":[203,22,162,94,105,204,86,171,56,110,154,202,225,182,210,91,42,197,78,138]},"announce":[],"urlList":[]}}